<svg width="380" height="349" viewBox="0 0 380 349" fill="none" xmlns="http://www.w3.org/2000/svg">
<path d="M218.393 36.1854C267.758 16.8957 316.547 49.9308 313.548 103.757C350.226 122.816 349.534 183.804 306.627 193.275C305.82 207.367 283.56 218.11 280.099 219.842C253.571 220.073 255.647 221.69 234.54 204.826C212.972 220.419 194.172 227.003 171.104 209.446C162.223 215.337 152.188 224 141.116 217.532C117.471 226.079 87.8288 211.641 82.8692 186.345C26.2376 178.144 27.1603 100.176 77.1022 81.8108C68.3365 2.45731 176.179 -31.3863 217.239 36.1854H218.393ZM294.978 77.306C281.945 43.3469 239.039 40.6902 211.473 58.1318C181.715 -16.4859 77.7943 14.008 94.4031 92.784C54.1497 97.9818 40.0783 154.118 81.7158 169.019C88.9822 134.136 121.969 118.427 153.226 135.522C148.959 107.684 186.444 94.6321 197.055 123.393C196.594 132.981 216.663 123.393 233.387 143.607C244.114 135.291 258.992 129.284 273.064 130.324C289.096 130.901 305.705 142.221 305.589 159.894C305.589 165.785 302.014 169.25 298.554 174.101C315.047 187.731 349.534 130.208 296.247 114.615C299.015 102.256 300.168 89.0877 294.978 77.1905V77.306ZM184.368 145.917V128.014C181.6 119.928 167.874 118.889 165.913 129.169V178.837C170.642 198.127 189.212 211.872 209.166 207.136C252.879 188.309 227.159 126.05 184.368 145.917ZM142.73 204.364C147.459 209.562 153.688 210.024 156.917 203.093C157.378 192.929 156.571 162.897 156.571 162.897C149.189 143.261 123.815 137.485 107.782 150.653C75.8335 175.025 108.129 223.538 142.846 204.48L142.73 204.364ZM261.068 208.291C292.902 213.027 305.705 182.88 281.829 184.035C272.141 194.661 252.995 192.467 253.456 175.949C254.725 165.785 265.221 159.432 274.909 162.088C282.176 168.441 295.555 170.174 294.632 157.122C282.291 131.71 243.306 145.455 237.424 169.596C234.886 187.384 244.114 203.671 261.068 208.291Z" fill="#00B2C1"/>
<path d="M198.439 160.009C210.55 159.778 218.278 173.293 212.165 183.688C207.551 192.12 195.094 193.968 188.174 187.5C177.793 178.144 184.022 160.356 198.209 160.009H198.439Z" fill="#00B2C1"/>
<path d="M126.583 159.894C135.81 159.894 144.23 169.365 142.5 178.606C139.731 192.929 121.393 196.047 114.472 182.995C108.705 173.177 114.934 160.24 126.467 160.009H126.698L126.583 159.894Z" fill="#00B2C1"/>
<path d="M99.02 261.44C95.98 261.44 93.38 260.84 91.22 259.64C89.06 258.44 87.3933 256.76 86.22 254.6C85.0733 252.413 84.5 249.84 84.5 246.88C84.5 244.667 84.82 242.68 85.46 240.92C86.1267 239.133 87.0867 237.613 88.34 236.36C89.5933 235.08 91.1133 234.093 92.9 233.4C94.7133 232.707 96.7533 232.36 99.02 232.36C100.353 232.36 101.7 232.533 103.06 232.88C104.447 233.2 105.647 233.667 106.66 234.28C107.327 234.653 107.78 235.12 108.02 235.68C108.26 236.24 108.327 236.8 108.22 237.36C108.14 237.92 107.913 238.4 107.54 238.8C107.193 239.2 106.753 239.453 106.22 239.56C105.687 239.667 105.087 239.547 104.42 239.2C103.62 238.72 102.78 238.373 101.9 238.16C101.02 237.947 100.127 237.84 99.22 237.84C97.4333 237.84 95.9267 238.2 94.7 238.92C93.5 239.613 92.5933 240.627 91.98 241.96C91.3667 243.293 91.06 244.933 91.06 246.88C91.06 248.8 91.3667 250.44 91.98 251.8C92.5933 253.16 93.5 254.2 94.7 254.92C95.9267 255.613 97.4333 255.96 99.22 255.96C100.073 255.96 100.94 255.853 101.82 255.64C102.727 255.427 103.593 255.093 104.42 254.64C105.113 254.293 105.727 254.173 106.26 254.28C106.82 254.36 107.273 254.6 107.62 255C107.993 255.373 108.22 255.827 108.3 256.36C108.407 256.893 108.353 257.427 108.14 257.96C107.927 258.493 107.527 258.947 106.94 259.32C105.953 259.987 104.74 260.507 103.3 260.88C101.86 261.253 100.433 261.44 99.02 261.44ZM120.197 261.44C118.091 261.44 116.251 261.027 114.678 260.2C113.131 259.373 111.931 258.187 111.077 256.64C110.224 255.093 109.798 253.267 109.798 251.16C109.798 249.587 110.038 248.173 110.518 246.92C110.998 245.667 111.691 244.6 112.598 243.72C113.531 242.813 114.638 242.133 115.918 241.68C117.198 241.2 118.624 240.96 120.197 240.96C122.304 240.96 124.131 241.373 125.678 242.2C127.251 243.027 128.464 244.2 129.318 245.72C130.198 247.24 130.638 249.053 130.638 251.16C130.638 252.76 130.384 254.187 129.878 255.44C129.398 256.693 128.704 257.773 127.798 258.68C126.891 259.587 125.784 260.28 124.478 260.76C123.198 261.213 121.771 261.44 120.197 261.44ZM120.197 256.92C121.078 256.92 121.838 256.707 122.478 256.28C123.118 255.853 123.624 255.227 123.998 254.4C124.371 253.547 124.558 252.467 124.558 251.16C124.558 249.213 124.158 247.787 123.358 246.88C122.558 245.947 121.504 245.48 120.197 245.48C119.344 245.48 118.584 245.68 117.918 246.08C117.278 246.48 116.771 247.107 116.398 247.96C116.051 248.787 115.878 249.853 115.878 251.16C115.878 253.107 116.278 254.56 117.078 255.52C117.878 256.453 118.918 256.92 120.197 256.92ZM137.432 261.36C136.446 261.36 135.686 261.093 135.152 260.56C134.646 260.027 134.392 259.267 134.392 258.28V244.08C134.392 243.093 134.646 242.347 135.152 241.84C135.686 241.307 136.419 241.04 137.352 241.04C138.312 241.04 139.046 241.307 139.552 241.84C140.059 242.347 140.312 243.093 140.312 244.08V246.64L139.872 245.04C140.406 243.813 141.232 242.827 142.352 242.08C143.472 241.333 144.792 240.96 146.312 240.96C147.832 240.96 149.099 241.32 150.112 242.04C151.126 242.76 151.846 243.867 152.272 245.36H151.712C152.299 244 153.192 242.933 154.392 242.16C155.619 241.36 157.019 240.96 158.592 240.96C160.112 240.96 161.352 241.267 162.312 241.88C163.299 242.467 164.032 243.373 164.512 244.6C164.992 245.8 165.232 247.333 165.232 249.2V258.28C165.232 259.267 164.966 260.027 164.432 260.56C163.926 261.093 163.192 261.36 162.232 261.36C161.246 261.36 160.486 261.093 159.952 260.56C159.446 260.027 159.192 259.267 159.192 258.28V249.4C159.192 248.093 158.979 247.147 158.552 246.56C158.152 245.947 157.459 245.64 156.472 245.64C155.326 245.64 154.432 246.04 153.792 246.84C153.152 247.64 152.832 248.773 152.832 250.24V258.28C152.832 259.267 152.566 260.027 152.032 260.56C151.526 261.093 150.792 261.36 149.832 261.36C148.872 261.36 148.126 261.093 147.592 260.56C147.059 260.027 146.792 259.267 146.792 258.28V249.4C146.792 248.093 146.579 247.147 146.152 246.56C145.752 245.947 145.059 245.64 144.072 245.64C142.926 245.64 142.032 246.04 141.392 246.84C140.752 247.64 140.432 248.773 140.432 250.24V258.28C140.432 260.333 139.432 261.36 137.432 261.36ZM177.099 261.44C175.446 261.44 174.072 261.133 172.979 260.52C171.886 259.907 171.072 258.987 170.539 257.76C170.032 256.507 169.779 254.96 169.779 253.12V244.08C169.779 243.067 170.032 242.307 170.539 241.8C171.072 241.293 171.819 241.04 172.779 241.04C173.739 241.04 174.486 241.293 175.019 241.8C175.552 242.307 175.819 243.067 175.819 244.08V253.28C175.819 254.453 176.059 255.333 176.539 255.92C177.019 256.48 177.779 256.76 178.819 256.76C179.966 256.76 180.899 256.36 181.619 255.56C182.366 254.733 182.739 253.653 182.739 252.32V244.08C182.739 243.067 182.992 242.307 183.499 241.8C184.032 241.293 184.779 241.04 185.739 241.04C186.726 241.04 187.472 241.293 187.979 241.8C188.512 242.307 188.779 243.067 188.779 244.08V258.28C188.779 260.333 187.806 261.36 185.859 261.36C184.899 261.36 184.166 261.093 183.659 260.56C183.152 260.027 182.899 259.267 182.899 258.28V255.6L183.499 257.16C182.912 258.52 182.072 259.573 180.979 260.32C179.886 261.067 178.592 261.44 177.099 261.44ZM196.493 261.36C195.506 261.36 194.746 261.093 194.213 260.56C193.706 260.027 193.453 259.267 193.453 258.28V244.08C193.453 243.093 193.706 242.347 194.213 241.84C194.746 241.307 195.479 241.04 196.413 241.04C197.373 241.04 198.106 241.307 198.613 241.84C199.119 242.347 199.373 243.093 199.373 244.08V246.36L198.933 245.04C199.546 243.733 200.453 242.733 201.653 242.04C202.879 241.32 204.266 240.96 205.813 240.96C207.386 240.96 208.679 241.267 209.693 241.88C210.706 242.467 211.466 243.373 211.973 244.6C212.479 245.8 212.733 247.333 212.733 249.2V258.28C212.733 259.267 212.466 260.027 211.933 260.56C211.426 261.093 210.679 261.36 209.693 261.36C208.733 261.36 207.986 261.093 207.453 260.56C206.946 260.027 206.693 259.267 206.693 258.28V249.48C206.693 248.12 206.439 247.147 205.933 246.56C205.453 245.947 204.706 245.64 203.693 245.64C202.413 245.64 201.386 246.04 200.613 246.84C199.866 247.64 199.493 248.707 199.493 250.04V258.28C199.493 260.333 198.493 261.36 196.493 261.36ZM220.282 261.32C219.295 261.32 218.535 261.04 218.002 260.48C217.495 259.893 217.242 259.08 217.242 258.04V244.36C217.242 243.293 217.495 242.48 218.002 241.92C218.535 241.333 219.295 241.04 220.282 241.04C221.242 241.04 221.975 241.333 222.482 241.92C223.015 242.48 223.282 243.293 223.282 244.36V258.04C223.282 259.08 223.029 259.893 222.522 260.48C222.015 261.04 221.269 261.32 220.282 261.32ZM220.282 237.76C219.162 237.76 218.295 237.507 217.682 237C217.095 236.467 216.802 235.72 216.802 234.76C216.802 233.773 217.095 233.027 217.682 232.52C218.295 231.987 219.162 231.72 220.282 231.72C221.402 231.72 222.255 231.987 222.842 232.52C223.429 233.027 223.722 233.773 223.722 234.76C223.722 235.72 223.429 236.467 222.842 237C222.255 237.507 221.402 237.76 220.282 237.76ZM235.585 261.44C233.878 261.44 232.372 261.027 231.065 260.2C229.785 259.373 228.785 258.187 228.065 256.64C227.345 255.093 226.985 253.267 226.985 251.16C226.985 249.053 227.345 247.24 228.065 245.72C228.785 244.2 229.785 243.027 231.065 242.2C232.372 241.373 233.878 240.96 235.585 240.96C237.132 240.96 238.492 241.333 239.665 242.08C240.865 242.827 241.678 243.8 242.105 245H241.665V235.52C241.665 234.507 241.918 233.747 242.425 233.24C242.932 232.707 243.678 232.44 244.665 232.44C245.625 232.44 246.372 232.707 246.905 233.24C247.438 233.747 247.705 234.507 247.705 235.52V258.28C247.705 259.267 247.438 260.027 246.905 260.56C246.398 261.093 245.665 261.36 244.705 261.36C243.745 261.36 242.998 261.093 242.465 260.56C241.958 260.027 241.705 259.267 241.705 258.28V255.56L242.145 257.12C241.772 258.427 240.972 259.48 239.745 260.28C238.545 261.053 237.158 261.44 235.585 261.44ZM237.385 256.92C238.265 256.92 239.025 256.707 239.665 256.28C240.305 255.853 240.812 255.227 241.185 254.4C241.558 253.547 241.745 252.467 241.745 251.16C241.745 249.213 241.345 247.787 240.545 246.88C239.745 245.947 238.692 245.48 237.385 245.48C236.532 245.48 235.772 245.68 235.105 246.08C234.465 246.48 233.958 247.107 233.585 247.96C233.238 248.787 233.065 249.853 233.065 251.16C233.065 253.107 233.465 254.56 234.265 255.52C235.065 256.453 236.105 256.92 237.385 256.92ZM258.999 261.44C257.559 261.44 256.266 261.16 255.119 260.6C253.972 260.04 253.079 259.28 252.439 258.32C251.799 257.36 251.479 256.28 251.479 255.08C251.479 253.64 251.852 252.507 252.599 251.68C253.346 250.827 254.559 250.227 256.239 249.88C257.919 249.507 260.146 249.32 262.919 249.32H265.039V252.44H262.959C261.599 252.44 260.492 252.52 259.639 252.68C258.812 252.813 258.212 253.053 257.839 253.4C257.492 253.747 257.319 254.227 257.319 254.84C257.319 255.587 257.572 256.2 258.079 256.68C258.612 257.16 259.372 257.4 260.359 257.4C261.132 257.4 261.812 257.227 262.399 256.88C263.012 256.507 263.492 256.013 263.839 255.4C264.186 254.76 264.359 254.04 264.359 253.24V248.64C264.359 247.467 264.092 246.64 263.559 246.16C263.026 245.653 262.119 245.4 260.839 245.4C260.119 245.4 259.332 245.493 258.479 245.68C257.652 245.84 256.732 246.12 255.719 246.52C255.132 246.787 254.612 246.853 254.159 246.72C253.706 246.56 253.359 246.293 253.119 245.92C252.879 245.52 252.759 245.093 252.759 244.64C252.759 244.16 252.892 243.707 253.159 243.28C253.426 242.827 253.866 242.493 254.479 242.28C255.732 241.773 256.906 241.427 257.999 241.24C259.119 241.053 260.146 240.96 261.079 240.96C263.132 240.96 264.812 241.267 266.119 241.88C267.452 242.467 268.452 243.387 269.119 244.64C269.786 245.867 270.119 247.453 270.119 249.4V258.28C270.119 259.267 269.879 260.027 269.399 260.56C268.919 261.093 268.226 261.36 267.319 261.36C266.412 261.36 265.706 261.093 265.199 260.56C264.719 260.027 264.479 259.267 264.479 258.28V256.8L264.759 257.04C264.599 257.947 264.252 258.733 263.719 259.4C263.212 260.04 262.559 260.547 261.759 260.92C260.959 261.267 260.039 261.44 258.999 261.44ZM282.265 261.44C280.558 261.44 279.051 261.027 277.745 260.2C276.465 259.373 275.465 258.187 274.745 256.64C274.025 255.093 273.665 253.267 273.665 251.16C273.665 249.053 274.025 247.24 274.745 245.72C275.465 244.2 276.465 243.027 277.745 242.2C279.051 241.373 280.558 240.96 282.265 240.96C283.811 240.96 285.171 241.333 286.345 242.08C287.545 242.827 288.358 243.8 288.785 245H288.345V235.52C288.345 234.507 288.598 233.747 289.105 233.24C289.611 232.707 290.358 232.44 291.345 232.44C292.305 232.44 293.051 232.707 293.585 233.24C294.118 233.747 294.385 234.507 294.385 235.52V258.28C294.385 259.267 294.118 260.027 293.585 260.56C293.078 261.093 292.345 261.36 291.385 261.36C290.425 261.36 289.678 261.093 289.145 260.56C288.638 260.027 288.385 259.267 288.385 258.28V255.56L288.825 257.12C288.451 258.427 287.651 259.48 286.425 260.28C285.225 261.053 283.838 261.44 282.265 261.44ZM284.065 256.92C284.945 256.92 285.705 256.707 286.345 256.28C286.985 255.853 287.491 255.227 287.865 254.4C288.238 253.547 288.425 252.467 288.425 251.16C288.425 249.213 288.025 247.787 287.225 246.88C286.425 245.947 285.371 245.48 284.065 245.48C283.211 245.48 282.451 245.68 281.785 246.08C281.145 246.48 280.638 247.107 280.265 247.96C279.918 248.787 279.745 249.853 279.745 251.16C279.745 253.107 280.145 254.56 280.945 255.52C281.745 256.453 282.785 256.92 284.065 256.92Z" fill="#00B2C1"/>
<path d="M93.2895 307.216C92.8415 307.216 92.4735 307.112 92.1855 306.904C91.9135 306.696 91.7375 306.416 91.6575 306.064C91.5935 305.712 91.6655 305.32 91.8735 304.888L98.0175 291.424C98.2735 290.88 98.5775 290.488 98.9295 290.248C99.2815 289.992 99.6895 289.864 100.153 289.864C100.617 289.864 101.025 289.992 101.377 290.248C101.729 290.488 102.025 290.88 102.265 291.424L108.457 304.888C108.665 305.32 108.737 305.72 108.673 306.088C108.625 306.44 108.465 306.72 108.193 306.928C107.921 307.12 107.569 307.216 107.137 307.216C106.593 307.216 106.169 307.088 105.865 306.832C105.577 306.576 105.321 306.176 105.097 305.632L103.657 302.296L105.145 303.328H95.1375L96.6255 302.296L95.2095 305.632C94.9695 306.192 94.7135 306.6 94.4415 306.856C94.1855 307.096 93.8015 307.216 93.2895 307.216ZM100.105 294.04L97.0335 301.36L96.3855 300.424H103.897L103.249 301.36L100.153 294.04H100.105ZM121.855 307.264C120.831 307.264 119.927 307.016 119.143 306.52C118.375 306.024 117.775 305.312 117.343 304.384C116.911 303.456 116.695 302.36 116.695 301.096C116.695 299.832 116.911 298.744 117.343 297.832C117.775 296.92 118.375 296.216 119.143 295.72C119.927 295.224 120.831 294.976 121.855 294.976C122.783 294.976 123.599 295.2 124.303 295.648C125.023 296.096 125.511 296.68 125.767 297.4H125.503V291.712C125.503 291.104 125.655 290.648 125.959 290.344C126.263 290.024 126.711 289.864 127.303 289.864C127.879 289.864 128.327 290.024 128.647 290.344C128.967 290.648 129.127 291.104 129.127 291.712V305.368C129.127 305.96 128.967 306.416 128.647 306.736C128.343 307.056 127.903 307.216 127.327 307.216C126.751 307.216 126.303 307.056 125.983 306.736C125.679 306.416 125.527 305.96 125.527 305.368V303.736L125.791 304.672C125.567 305.456 125.087 306.088 124.351 306.568C123.631 307.032 122.799 307.264 121.855 307.264ZM122.935 304.552C123.463 304.552 123.919 304.424 124.303 304.168C124.687 303.912 124.991 303.536 125.215 303.04C125.439 302.528 125.551 301.88 125.551 301.096C125.551 299.928 125.311 299.072 124.831 298.528C124.351 297.968 123.719 297.688 122.935 297.688C122.423 297.688 121.967 297.808 121.567 298.048C121.183 298.288 120.879 298.664 120.655 299.176C120.447 299.672 120.343 300.312 120.343 301.096C120.343 302.264 120.583 303.136 121.063 303.712C121.543 304.272 122.167 304.552 122.935 304.552ZM133.743 307.192C133.151 307.192 132.695 307.024 132.375 306.688C132.071 306.336 131.919 305.848 131.919 305.224V297.016C131.919 296.376 132.071 295.888 132.375 295.552C132.695 295.2 133.151 295.024 133.743 295.024C134.319 295.024 134.759 295.2 135.063 295.552C135.383 295.888 135.543 296.376 135.543 297.016V305.224C135.543 305.848 135.391 306.336 135.087 306.688C134.783 307.024 134.335 307.192 133.743 307.192ZM133.743 293.056C133.071 293.056 132.551 292.904 132.183 292.6C131.831 292.28 131.655 291.832 131.655 291.256C131.655 290.664 131.831 290.216 132.183 289.912C132.551 289.592 133.071 289.432 133.743 289.432C134.415 289.432 134.927 289.592 135.279 289.912C135.631 290.216 135.807 290.664 135.807 291.256C135.807 291.832 135.631 292.28 135.279 292.6C134.927 292.904 134.415 293.056 133.743 293.056ZM144.005 311.584C143.141 311.584 142.309 311.512 141.509 311.368C140.725 311.224 140.029 311.008 139.421 310.72C139.053 310.56 138.789 310.352 138.629 310.096C138.485 309.84 138.421 309.568 138.437 309.28C138.469 308.992 138.565 308.736 138.725 308.512C138.901 308.288 139.117 308.128 139.373 308.032C139.629 307.952 139.901 307.976 140.189 308.104C140.893 308.424 141.541 308.632 142.133 308.728C142.741 308.824 143.261 308.872 143.693 308.872C144.717 308.872 145.485 308.64 145.997 308.176C146.509 307.712 146.765 307 146.765 306.04V304.216H146.981C146.741 304.952 146.245 305.552 145.493 306.016C144.741 306.48 143.909 306.712 142.997 306.712C141.941 306.712 141.021 306.472 140.237 305.992C139.453 305.496 138.845 304.808 138.413 303.928C137.981 303.032 137.765 302 137.765 300.832C137.765 299.952 137.885 299.152 138.125 298.432C138.381 297.712 138.733 297.096 139.181 296.584C139.645 296.072 140.197 295.68 140.837 295.408C141.493 295.12 142.213 294.976 142.997 294.976C143.941 294.976 144.773 295.208 145.493 295.672C146.229 296.12 146.717 296.712 146.957 297.448L146.717 298.216V296.848C146.717 296.256 146.869 295.808 147.173 295.504C147.493 295.184 147.941 295.024 148.517 295.024C149.093 295.024 149.533 295.184 149.837 295.504C150.141 295.808 150.293 296.256 150.293 296.848V305.632C150.293 307.6 149.749 309.08 148.661 310.072C147.589 311.08 146.037 311.584 144.005 311.584ZM144.077 304C144.621 304 145.085 303.872 145.469 303.616C145.869 303.36 146.181 303 146.405 302.536C146.629 302.056 146.741 301.488 146.741 300.832C146.741 299.84 146.493 299.072 145.997 298.528C145.517 297.968 144.877 297.688 144.077 297.688C143.533 297.688 143.061 297.816 142.661 298.072C142.261 298.312 141.949 298.672 141.725 299.152C141.517 299.616 141.413 300.176 141.413 300.832C141.413 301.824 141.653 302.6 142.133 303.16C142.613 303.72 143.261 304 144.077 304ZM154.931 307.192C154.339 307.192 153.883 307.024 153.563 306.688C153.259 306.336 153.107 305.848 153.107 305.224V297.016C153.107 296.376 153.259 295.888 153.563 295.552C153.883 295.2 154.339 295.024 154.931 295.024C155.507 295.024 155.947 295.2 156.251 295.552C156.571 295.888 156.731 296.376 156.731 297.016V305.224C156.731 305.848 156.579 306.336 156.275 306.688C155.971 307.024 155.523 307.192 154.931 307.192ZM154.931 293.056C154.259 293.056 153.739 292.904 153.371 292.6C153.019 292.28 152.843 291.832 152.843 291.256C152.843 290.664 153.019 290.216 153.371 289.912C153.739 289.592 154.259 289.432 154.931 289.432C155.603 289.432 156.115 289.592 156.467 289.912C156.819 290.216 156.995 290.664 156.995 291.256C156.995 291.832 156.819 292.28 156.467 292.6C156.115 292.904 155.603 293.056 154.931 293.056ZM165.313 307.264C164.209 307.264 163.281 307.08 162.529 306.712C161.793 306.344 161.241 305.808 160.873 305.104C160.521 304.4 160.345 303.512 160.345 302.44V297.928H159.337C158.889 297.928 158.537 297.808 158.281 297.568C158.041 297.328 157.921 297 157.921 296.584C157.921 296.136 158.041 295.8 158.281 295.576C158.537 295.336 158.889 295.216 159.337 295.216H160.345V293.392C160.345 292.784 160.505 292.328 160.825 292.024C161.145 291.704 161.593 291.544 162.169 291.544C162.761 291.544 163.209 291.704 163.513 292.024C163.817 292.328 163.969 292.784 163.969 293.392V295.216H166.249C166.697 295.216 167.041 295.336 167.281 295.576C167.521 295.8 167.641 296.136 167.641 296.584C167.641 297 167.521 297.328 167.281 297.568C167.041 297.808 166.697 297.928 166.249 297.928H163.969V302.296C163.969 302.968 164.121 303.472 164.425 303.808C164.745 304.144 165.249 304.312 165.937 304.312C166.177 304.312 166.401 304.288 166.609 304.24C166.817 304.192 167.009 304.16 167.185 304.144C167.409 304.128 167.593 304.2 167.737 304.36C167.881 304.504 167.953 304.832 167.953 305.344C167.953 305.728 167.889 306.064 167.761 306.352C167.633 306.64 167.409 306.848 167.089 306.976C166.881 307.056 166.593 307.12 166.225 307.168C165.873 307.232 165.569 307.264 165.313 307.264ZM173.216 307.264C172.352 307.264 171.576 307.096 170.888 306.76C170.2 306.424 169.664 305.968 169.28 305.392C168.896 304.816 168.704 304.168 168.704 303.448C168.704 302.584 168.928 301.904 169.376 301.408C169.824 300.896 170.552 300.536 171.56 300.328C172.568 300.104 173.904 299.992 175.568 299.992H176.84V301.864H175.592C174.776 301.864 174.112 301.912 173.6 302.008C173.104 302.088 172.744 302.232 172.52 302.44C172.312 302.648 172.208 302.936 172.208 303.304C172.208 303.752 172.36 304.12 172.664 304.408C172.984 304.696 173.44 304.84 174.032 304.84C174.496 304.84 174.904 304.736 175.256 304.528C175.624 304.304 175.912 304.008 176.12 303.64C176.328 303.256 176.432 302.824 176.432 302.344V299.584C176.432 298.88 176.272 298.384 175.952 298.096C175.632 297.792 175.088 297.64 174.32 297.64C173.888 297.64 173.416 297.696 172.904 297.808C172.408 297.904 171.856 298.072 171.248 298.312C170.896 298.472 170.584 298.512 170.312 298.432C170.04 298.336 169.832 298.176 169.688 297.952C169.544 297.712 169.472 297.456 169.472 297.184C169.472 296.896 169.552 296.624 169.712 296.368C169.872 296.096 170.136 295.896 170.504 295.768C171.256 295.464 171.96 295.256 172.616 295.144C173.288 295.032 173.904 294.976 174.464 294.976C175.696 294.976 176.704 295.16 177.488 295.528C178.288 295.88 178.888 296.432 179.288 297.184C179.688 297.92 179.888 298.872 179.888 300.04V305.368C179.888 305.96 179.744 306.416 179.456 306.736C179.168 307.056 178.752 307.216 178.208 307.216C177.664 307.216 177.24 307.056 176.936 306.736C176.648 306.416 176.504 305.96 176.504 305.368V304.48L176.672 304.624C176.576 305.168 176.368 305.64 176.048 306.04C175.744 306.424 175.352 306.728 174.872 306.952C174.392 307.16 173.84 307.264 173.216 307.264ZM186.839 307.264C185.415 307.264 184.351 306.872 183.647 306.088C182.943 305.288 182.591 304.104 182.591 302.536V291.712C182.591 291.104 182.743 290.648 183.047 290.344C183.367 290.024 183.823 289.864 184.415 289.864C184.991 289.864 185.431 290.024 185.735 290.344C186.055 290.648 186.215 291.104 186.215 291.712V302.392C186.215 303.048 186.351 303.536 186.623 303.856C186.911 304.16 187.287 304.312 187.751 304.312C187.879 304.312 187.999 304.304 188.111 304.288C188.223 304.272 188.343 304.264 188.471 304.264C188.727 304.232 188.903 304.312 188.999 304.504C189.111 304.68 189.167 305.04 189.167 305.584C189.167 306.064 189.071 306.432 188.879 306.688C188.687 306.928 188.391 307.088 187.991 307.168C187.831 307.184 187.647 307.2 187.439 307.216C187.231 307.248 187.031 307.264 186.839 307.264ZM201.799 307.264C201.095 307.264 200.367 307.2 199.615 307.072C198.879 306.944 198.207 306.728 197.599 306.424C197.279 306.264 197.047 306.064 196.903 305.824C196.775 305.568 196.719 305.312 196.735 305.056C196.751 304.8 196.831 304.568 196.975 304.36C197.135 304.152 197.335 304.016 197.575 303.952C197.831 303.872 198.111 303.896 198.415 304.024C199.071 304.296 199.671 304.488 200.215 304.6C200.759 304.712 201.295 304.768 201.823 304.768C202.511 304.768 203.007 304.664 203.311 304.456C203.631 304.232 203.791 303.944 203.791 303.592C203.791 303.272 203.687 303.032 203.479 302.872C203.271 302.712 202.967 302.6 202.567 302.536L200.047 302.08C199.055 301.904 198.287 301.544 197.743 301C197.215 300.44 196.951 299.728 196.951 298.864C196.951 298.064 197.175 297.376 197.623 296.8C198.071 296.208 198.687 295.76 199.471 295.456C200.271 295.136 201.175 294.976 202.183 294.976C202.903 294.976 203.567 295.04 204.175 295.168C204.783 295.296 205.367 295.504 205.927 295.792C206.215 295.936 206.415 296.128 206.527 296.368C206.655 296.608 206.695 296.856 206.647 297.112C206.615 297.368 206.519 297.6 206.359 297.808C206.199 298.016 205.991 298.152 205.735 298.216C205.495 298.28 205.215 298.248 204.895 298.12C204.383 297.88 203.911 297.712 203.479 297.616C203.047 297.504 202.631 297.448 202.231 297.448C201.511 297.448 200.991 297.568 200.671 297.808C200.351 298.032 200.191 298.32 200.191 298.672C200.191 298.944 200.279 299.176 200.455 299.368C200.647 299.544 200.935 299.664 201.319 299.728L203.839 300.184C204.879 300.36 205.671 300.712 206.215 301.24C206.759 301.752 207.031 302.456 207.031 303.352C207.031 304.568 206.551 305.528 205.591 306.232C204.647 306.92 203.383 307.264 201.799 307.264ZM214.763 307.264C213.499 307.264 212.395 307.016 211.451 306.52C210.523 306.024 209.803 305.312 209.291 304.384C208.779 303.456 208.523 302.36 208.523 301.096C208.523 300.152 208.667 299.304 208.955 298.552C209.243 297.8 209.659 297.16 210.203 296.632C210.763 296.088 211.427 295.68 212.195 295.408C212.963 295.12 213.819 294.976 214.763 294.976C216.027 294.976 217.123 295.224 218.051 295.72C218.995 296.216 219.723 296.92 220.235 297.832C220.763 298.744 221.027 299.832 221.027 301.096C221.027 302.056 220.875 302.912 220.571 303.664C220.283 304.416 219.867 305.064 219.323 305.608C218.779 306.152 218.115 306.568 217.331 306.856C216.563 307.128 215.707 307.264 214.763 307.264ZM214.763 304.552C215.291 304.552 215.747 304.424 216.131 304.168C216.515 303.912 216.819 303.536 217.043 303.04C217.267 302.528 217.379 301.88 217.379 301.096C217.379 299.928 217.139 299.072 216.659 298.528C216.179 297.968 215.547 297.688 214.763 297.688C214.251 297.688 213.795 297.808 213.395 298.048C213.011 298.288 212.707 298.664 212.483 299.176C212.275 299.672 212.171 300.312 212.171 301.096C212.171 302.264 212.411 303.136 212.891 303.712C213.371 304.272 213.995 304.552 214.763 304.552ZM227.48 307.264C226.056 307.264 224.992 306.872 224.288 306.088C223.584 305.288 223.232 304.104 223.232 302.536V291.712C223.232 291.104 223.384 290.648 223.688 290.344C224.008 290.024 224.464 289.864 225.056 289.864C225.632 289.864 226.072 290.024 226.376 290.344C226.696 290.648 226.856 291.104 226.856 291.712V302.392C226.856 303.048 226.992 303.536 227.264 303.856C227.552 304.16 227.928 304.312 228.392 304.312C228.52 304.312 228.64 304.304 228.752 304.288C228.864 304.272 228.984 304.264 229.112 304.264C229.368 304.232 229.544 304.312 229.64 304.504C229.752 304.68 229.808 305.04 229.808 305.584C229.808 306.064 229.712 306.432 229.52 306.688C229.328 306.928 229.032 307.088 228.632 307.168C228.472 307.184 228.288 307.2 228.08 307.216C227.872 307.248 227.672 307.264 227.48 307.264ZM235.568 307.264C234.576 307.264 233.752 307.08 233.096 306.712C232.44 306.344 231.952 305.792 231.632 305.056C231.328 304.304 231.176 303.376 231.176 302.272V296.848C231.176 296.24 231.328 295.784 231.632 295.48C231.952 295.176 232.4 295.024 232.976 295.024C233.552 295.024 234 295.176 234.32 295.48C234.64 295.784 234.8 296.24 234.8 296.848V302.368C234.8 303.072 234.944 303.6 235.232 303.952C235.52 304.288 235.976 304.456 236.6 304.456C237.288 304.456 237.848 304.216 238.28 303.736C238.728 303.24 238.952 302.592 238.952 301.792V296.848C238.952 296.24 239.104 295.784 239.408 295.48C239.728 295.176 240.176 295.024 240.752 295.024C241.344 295.024 241.792 295.176 242.096 295.48C242.416 295.784 242.576 296.24 242.576 296.848V305.368C242.576 306.6 241.992 307.216 240.824 307.216C240.248 307.216 239.808 307.056 239.504 306.736C239.2 306.416 239.048 305.96 239.048 305.368V303.76L239.408 304.696C239.056 305.512 238.552 306.144 237.896 306.592C237.24 307.04 236.464 307.264 235.568 307.264ZM251.164 307.264C250.06 307.264 249.132 307.08 248.38 306.712C247.644 306.344 247.092 305.808 246.724 305.104C246.372 304.4 246.196 303.512 246.196 302.44V297.928H245.188C244.74 297.928 244.388 297.808 244.132 297.568C243.892 297.328 243.772 297 243.772 296.584C243.772 296.136 243.892 295.8 244.132 295.576C244.388 295.336 244.74 295.216 245.188 295.216H246.196V293.392C246.196 292.784 246.356 292.328 246.676 292.024C246.996 291.704 247.444 291.544 248.02 291.544C248.612 291.544 249.06 291.704 249.364 292.024C249.668 292.328 249.82 292.784 249.82 293.392V295.216H252.1C252.548 295.216 252.892 295.336 253.132 295.576C253.372 295.8 253.492 296.136 253.492 296.584C253.492 297 253.372 297.328 253.132 297.568C252.892 297.808 252.548 297.928 252.1 297.928H249.82V302.296C249.82 302.968 249.972 303.472 250.276 303.808C250.596 304.144 251.1 304.312 251.788 304.312C252.028 304.312 252.252 304.288 252.46 304.24C252.668 304.192 252.86 304.16 253.036 304.144C253.26 304.128 253.444 304.2 253.588 304.36C253.732 304.504 253.804 304.832 253.804 305.344C253.804 305.728 253.74 306.064 253.612 306.352C253.484 306.64 253.26 306.848 252.94 306.976C252.732 307.056 252.444 307.12 252.076 307.168C251.724 307.232 251.42 307.264 251.164 307.264ZM257.282 307.192C256.69 307.192 256.234 307.024 255.914 306.688C255.61 306.336 255.458 305.848 255.458 305.224V297.016C255.458 296.376 255.61 295.888 255.914 295.552C256.234 295.2 256.69 295.024 257.282 295.024C257.858 295.024 258.298 295.2 258.602 295.552C258.922 295.888 259.082 296.376 259.082 297.016V305.224C259.082 305.848 258.93 306.336 258.626 306.688C258.322 307.024 257.874 307.192 257.282 307.192ZM257.282 293.056C256.61 293.056 256.09 292.904 255.722 292.6C255.37 292.28 255.194 291.832 255.194 291.256C255.194 290.664 255.37 290.216 255.722 289.912C256.09 289.592 256.61 289.432 257.282 289.432C257.954 289.432 258.466 289.592 258.818 289.912C259.17 290.216 259.346 290.664 259.346 291.256C259.346 291.832 259.17 292.28 258.818 292.6C258.466 292.904 257.954 293.056 257.282 293.056ZM267.544 307.264C266.28 307.264 265.176 307.016 264.232 306.52C263.304 306.024 262.584 305.312 262.072 304.384C261.56 303.456 261.304 302.36 261.304 301.096C261.304 300.152 261.448 299.304 261.736 298.552C262.024 297.8 262.44 297.16 262.984 296.632C263.544 296.088 264.208 295.68 264.976 295.408C265.744 295.12 266.6 294.976 267.544 294.976C268.808 294.976 269.904 295.224 270.832 295.72C271.776 296.216 272.504 296.92 273.016 297.832C273.544 298.744 273.808 299.832 273.808 301.096C273.808 302.056 273.656 302.912 273.352 303.664C273.064 304.416 272.648 305.064 272.104 305.608C271.56 306.152 270.896 306.568 270.112 306.856C269.344 307.128 268.488 307.264 267.544 307.264ZM267.544 304.552C268.072 304.552 268.528 304.424 268.912 304.168C269.296 303.912 269.6 303.536 269.824 303.04C270.048 302.528 270.16 301.88 270.16 301.096C270.16 299.928 269.92 299.072 269.44 298.528C268.96 297.968 268.328 297.688 267.544 297.688C267.032 297.688 266.576 297.808 266.176 298.048C265.792 298.288 265.488 298.664 265.264 299.176C265.056 299.672 264.952 300.312 264.952 301.096C264.952 302.264 265.192 303.136 265.672 303.712C266.152 304.272 266.776 304.552 267.544 304.552ZM277.837 307.216C277.245 307.216 276.789 307.056 276.469 306.736C276.165 306.416 276.013 305.96 276.013 305.368V296.848C276.013 296.256 276.165 295.808 276.469 295.504C276.789 295.184 277.229 295.024 277.789 295.024C278.365 295.024 278.805 295.184 279.109 295.504C279.413 295.808 279.565 296.256 279.565 296.848V298.216L279.301 297.424C279.669 296.64 280.213 296.04 280.933 295.624C281.669 295.192 282.501 294.976 283.429 294.976C284.373 294.976 285.149 295.16 285.757 295.528C286.365 295.88 286.821 296.424 287.125 297.16C287.429 297.88 287.581 298.8 287.581 299.92V305.368C287.581 305.96 287.421 306.416 287.101 306.736C286.797 307.056 286.349 307.216 285.757 307.216C285.181 307.216 284.733 307.056 284.413 306.736C284.109 306.416 283.957 305.96 283.957 305.368V300.088C283.957 299.272 283.805 298.688 283.501 298.336C283.213 297.968 282.765 297.784 282.157 297.784C281.389 297.784 280.773 298.024 280.309 298.504C279.861 298.984 279.637 299.624 279.637 300.424V305.368C279.637 306.6 279.037 307.216 277.837 307.216ZM73.058 340.264C72.034 340.264 71.13 340.016 70.346 339.52C69.578 339.024 68.978 338.312 68.546 337.384C68.114 336.456 67.898 335.36 67.898 334.096C67.898 332.832 68.114 331.744 68.546 330.832C68.978 329.92 69.578 329.216 70.346 328.72C71.13 328.224 72.034 327.976 73.058 327.976C73.986 327.976 74.802 328.2 75.506 328.648C76.226 329.096 76.714 329.68 76.97 330.4H76.706V324.712C76.706 324.104 76.858 323.648 77.162 323.344C77.466 323.024 77.914 322.864 78.506 322.864C79.082 322.864 79.53 323.024 79.85 323.344C80.17 323.648 80.33 324.104 80.33 324.712V338.368C80.33 338.96 80.17 339.416 79.85 339.736C79.546 340.056 79.106 340.216 78.53 340.216C77.954 340.216 77.506 340.056 77.186 339.736C76.882 339.416 76.73 338.96 76.73 338.368V336.736L76.994 337.672C76.77 338.456 76.29 339.088 75.554 339.568C74.834 340.032 74.002 340.264 73.058 340.264ZM74.138 337.552C74.666 337.552 75.122 337.424 75.506 337.168C75.89 336.912 76.194 336.536 76.418 336.04C76.642 335.528 76.754 334.88 76.754 334.096C76.754 332.928 76.514 332.072 76.034 331.528C75.554 330.968 74.922 330.688 74.138 330.688C73.626 330.688 73.17 330.808 72.77 331.048C72.386 331.288 72.082 331.664 71.858 332.176C71.65 332.672 71.546 333.312 71.546 334.096C71.546 335.264 71.786 336.136 72.266 336.712C72.746 337.272 73.37 337.552 74.138 337.552ZM89.2425 340.264C87.8505 340.264 86.6505 340.016 85.6425 339.52C84.6505 339.008 83.8825 338.296 83.3385 337.384C82.8105 336.456 82.5465 335.368 82.5465 334.12C82.5465 332.904 82.8025 331.84 83.3145 330.928C83.8265 330 84.5385 329.28 85.4505 328.768C86.3785 328.24 87.4265 327.976 88.5945 327.976C89.4425 327.976 90.2105 328.12 90.8985 328.408C91.5865 328.68 92.1785 329.08 92.6745 329.608C93.1705 330.12 93.5465 330.752 93.8025 331.504C94.0585 332.24 94.1865 333.064 94.1865 333.976C94.1865 334.28 94.0905 334.512 93.8985 334.672C93.7065 334.816 93.4265 334.888 93.0585 334.888H85.5225V333.016H91.5705L91.1865 333.352C91.1865 332.696 91.0905 332.152 90.8985 331.72C90.7065 331.272 90.4265 330.936 90.0585 330.712C89.7065 330.488 89.2665 330.376 88.7385 330.376C88.1465 330.376 87.6425 330.512 87.2265 330.784C86.8105 331.056 86.4905 331.448 86.2665 331.96C86.0425 332.472 85.9305 333.088 85.9305 333.808V334C85.9305 335.216 86.2105 336.112 86.7705 336.688C87.3465 337.264 88.1945 337.552 89.3145 337.552C89.6985 337.552 90.1385 337.504 90.6345 337.408C91.1305 337.312 91.5945 337.16 92.0265 336.952C92.3945 336.776 92.7225 336.72 93.0105 336.784C93.2985 336.832 93.5225 336.96 93.6825 337.168C93.8425 337.376 93.9305 337.616 93.9465 337.888C93.9785 338.16 93.9225 338.432 93.7785 338.704C93.6345 338.96 93.3945 339.176 93.0585 339.352C92.5145 339.656 91.8985 339.88 91.2105 340.024C90.5385 340.184 89.8825 340.264 89.2425 340.264ZM100.806 340.264C100.102 340.264 99.3743 340.2 98.6223 340.072C97.8863 339.944 97.2143 339.728 96.6063 339.424C96.2863 339.264 96.0543 339.064 95.9103 338.824C95.7823 338.568 95.7263 338.312 95.7423 338.056C95.7583 337.8 95.8383 337.568 95.9823 337.36C96.1423 337.152 96.3423 337.016 96.5823 336.952C96.8383 336.872 97.1183 336.896 97.4223 337.024C98.0783 337.296 98.6783 337.488 99.2223 337.6C99.7663 337.712 100.302 337.768 100.83 337.768C101.518 337.768 102.014 337.664 102.318 337.456C102.638 337.232 102.798 336.944 102.798 336.592C102.798 336.272 102.694 336.032 102.486 335.872C102.278 335.712 101.974 335.6 101.574 335.536L99.0543 335.08C98.0623 334.904 97.2943 334.544 96.7503 334C96.2223 333.44 95.9583 332.728 95.9583 331.864C95.9583 331.064 96.1823 330.376 96.6303 329.8C97.0783 329.208 97.6943 328.76 98.4783 328.456C99.2783 328.136 100.182 327.976 101.19 327.976C101.91 327.976 102.574 328.04 103.182 328.168C103.79 328.296 104.374 328.504 104.934 328.792C105.222 328.936 105.422 329.128 105.534 329.368C105.662 329.608 105.702 329.856 105.654 330.112C105.622 330.368 105.526 330.6 105.366 330.808C105.206 331.016 104.998 331.152 104.742 331.216C104.502 331.28 104.222 331.248 103.902 331.12C103.39 330.88 102.918 330.712 102.486 330.616C102.054 330.504 101.638 330.448 101.238 330.448C100.518 330.448 99.9983 330.568 99.6783 330.808C99.3583 331.032 99.1983 331.32 99.1983 331.672C99.1983 331.944 99.2863 332.176 99.4623 332.368C99.6543 332.544 99.9423 332.664 100.326 332.728L102.846 333.184C103.886 333.36 104.678 333.712 105.222 334.24C105.766 334.752 106.038 335.456 106.038 336.352C106.038 337.568 105.558 338.528 104.598 339.232C103.654 339.92 102.39 340.264 100.806 340.264ZM109.931 340.192C109.339 340.192 108.883 340.024 108.563 339.688C108.259 339.336 108.107 338.848 108.107 338.224V330.016C108.107 329.376 108.259 328.888 108.563 328.552C108.883 328.2 109.339 328.024 109.931 328.024C110.507 328.024 110.947 328.2 111.251 328.552C111.571 328.888 111.731 329.376 111.731 330.016V338.224C111.731 338.848 111.579 339.336 111.275 339.688C110.971 340.024 110.523 340.192 109.931 340.192ZM109.931 326.056C109.259 326.056 108.739 325.904 108.371 325.6C108.019 325.28 107.843 324.832 107.843 324.256C107.843 323.664 108.019 323.216 108.371 322.912C108.739 322.592 109.259 322.432 109.931 322.432C110.603 322.432 111.115 322.592 111.467 322.912C111.819 323.216 111.995 323.664 111.995 324.256C111.995 324.832 111.819 325.28 111.467 325.6C111.115 325.904 110.603 326.056 109.931 326.056ZM120.193 344.584C119.329 344.584 118.497 344.512 117.697 344.368C116.913 344.224 116.217 344.008 115.609 343.72C115.241 343.56 114.977 343.352 114.817 343.096C114.673 342.84 114.609 342.568 114.625 342.28C114.657 341.992 114.753 341.736 114.913 341.512C115.089 341.288 115.305 341.128 115.561 341.032C115.817 340.952 116.089 340.976 116.377 341.104C117.081 341.424 117.729 341.632 118.321 341.728C118.929 341.824 119.449 341.872 119.881 341.872C120.905 341.872 121.673 341.64 122.185 341.176C122.697 340.712 122.953 340 122.953 339.04V337.216H123.169C122.929 337.952 122.433 338.552 121.681 339.016C120.929 339.48 120.097 339.712 119.185 339.712C118.129 339.712 117.209 339.472 116.425 338.992C115.641 338.496 115.033 337.808 114.601 336.928C114.169 336.032 113.953 335 113.953 333.832C113.953 332.952 114.073 332.152 114.313 331.432C114.569 330.712 114.921 330.096 115.369 329.584C115.833 329.072 116.385 328.68 117.025 328.408C117.681 328.12 118.401 327.976 119.185 327.976C120.129 327.976 120.961 328.208 121.681 328.672C122.417 329.12 122.905 329.712 123.145 330.448L122.905 331.216V329.848C122.905 329.256 123.057 328.808 123.361 328.504C123.681 328.184 124.129 328.024 124.705 328.024C125.281 328.024 125.721 328.184 126.025 328.504C126.329 328.808 126.481 329.256 126.481 329.848V338.632C126.481 340.6 125.937 342.08 124.849 343.072C123.777 344.08 122.225 344.584 120.193 344.584ZM120.265 337C120.809 337 121.273 336.872 121.657 336.616C122.057 336.36 122.369 336 122.593 335.536C122.817 335.056 122.929 334.488 122.929 333.832C122.929 332.84 122.681 332.072 122.185 331.528C121.705 330.968 121.065 330.688 120.265 330.688C119.721 330.688 119.249 330.816 118.849 331.072C118.449 331.312 118.137 331.672 117.913 332.152C117.705 332.616 117.601 333.176 117.601 333.832C117.601 334.824 117.841 335.6 118.321 336.16C118.801 336.72 119.449 337 120.265 337ZM131.118 340.216C130.526 340.216 130.07 340.056 129.75 339.736C129.446 339.416 129.294 338.96 129.294 338.368V329.848C129.294 329.256 129.446 328.808 129.75 328.504C130.07 328.184 130.51 328.024 131.07 328.024C131.646 328.024 132.086 328.184 132.39 328.504C132.694 328.808 132.846 329.256 132.846 329.848V331.216L132.582 330.424C132.95 329.64 133.494 329.04 134.214 328.624C134.95 328.192 135.782 327.976 136.71 327.976C137.654 327.976 138.43 328.16 139.038 328.528C139.646 328.88 140.102 329.424 140.406 330.16C140.71 330.88 140.862 331.8 140.862 332.92V338.368C140.862 338.96 140.702 339.416 140.382 339.736C140.078 340.056 139.63 340.216 139.038 340.216C138.462 340.216 138.014 340.056 137.694 339.736C137.39 339.416 137.238 338.96 137.238 338.368V333.088C137.238 332.272 137.086 331.688 136.782 331.336C136.494 330.968 136.046 330.784 135.438 330.784C134.67 330.784 134.054 331.024 133.59 331.504C133.142 331.984 132.918 332.624 132.918 333.424V338.368C132.918 339.6 132.318 340.216 131.118 340.216ZM149.688 340.264C148.296 340.264 147.096 340.016 146.088 339.52C145.096 339.008 144.328 338.296 143.784 337.384C143.256 336.456 142.992 335.368 142.992 334.12C142.992 332.904 143.248 331.84 143.76 330.928C144.272 330 144.984 329.28 145.896 328.768C146.824 328.24 147.872 327.976 149.04 327.976C149.888 327.976 150.656 328.12 151.344 328.408C152.032 328.68 152.624 329.08 153.12 329.608C153.616 330.12 153.992 330.752 154.248 331.504C154.504 332.24 154.632 333.064 154.632 333.976C154.632 334.28 154.536 334.512 154.344 334.672C154.152 334.816 153.872 334.888 153.504 334.888H145.968V333.016H152.016L151.632 333.352C151.632 332.696 151.536 332.152 151.344 331.72C151.152 331.272 150.872 330.936 150.504 330.712C150.152 330.488 149.712 330.376 149.184 330.376C148.592 330.376 148.088 330.512 147.672 330.784C147.256 331.056 146.936 331.448 146.712 331.96C146.488 332.472 146.376 333.088 146.376 333.808V334C146.376 335.216 146.656 336.112 147.216 336.688C147.792 337.264 148.64 337.552 149.76 337.552C150.144 337.552 150.584 337.504 151.08 337.408C151.576 337.312 152.04 337.16 152.472 336.952C152.84 336.776 153.168 336.72 153.456 336.784C153.744 336.832 153.968 336.96 154.128 337.168C154.288 337.376 154.376 337.616 154.392 337.888C154.424 338.16 154.368 338.432 154.224 338.704C154.08 338.96 153.84 339.176 153.504 339.352C152.96 339.656 152.344 339.88 151.656 340.024C150.984 340.184 150.328 340.264 149.688 340.264ZM161.324 340.264C160.3 340.264 159.396 340.016 158.612 339.52C157.844 339.024 157.244 338.312 156.812 337.384C156.38 336.456 156.164 335.36 156.164 334.096C156.164 332.832 156.38 331.744 156.812 330.832C157.244 329.92 157.844 329.216 158.612 328.72C159.396 328.224 160.3 327.976 161.324 327.976C162.252 327.976 163.068 328.2 163.772 328.648C164.492 329.096 164.98 329.68 165.236 330.4H164.972V324.712C164.972 324.104 165.124 323.648 165.428 323.344C165.732 323.024 166.18 322.864 166.772 322.864C167.348 322.864 167.796 323.024 168.116 323.344C168.436 323.648 168.596 324.104 168.596 324.712V338.368C168.596 338.96 168.436 339.416 168.116 339.736C167.812 340.056 167.372 340.216 166.796 340.216C166.22 340.216 165.772 340.056 165.452 339.736C165.148 339.416 164.996 338.96 164.996 338.368V336.736L165.26 337.672C165.036 338.456 164.556 339.088 163.82 339.568C163.1 340.032 162.268 340.264 161.324 340.264ZM162.404 337.552C162.932 337.552 163.388 337.424 163.772 337.168C164.156 336.912 164.46 336.536 164.684 336.04C164.908 335.528 165.02 334.88 165.02 334.096C165.02 332.928 164.78 332.072 164.3 331.528C163.82 330.968 163.188 330.688 162.404 330.688C161.892 330.688 161.436 330.808 161.036 331.048C160.652 331.288 160.348 331.664 160.124 332.176C159.916 332.672 159.812 333.312 159.812 334.096C159.812 335.264 160.052 336.136 160.532 336.712C161.012 337.272 161.636 337.552 162.404 337.552ZM180.827 340.216C180.235 340.216 179.779 340.056 179.459 339.736C179.155 339.416 179.003 338.96 179.003 338.368V330.928H178.139C177.691 330.928 177.339 330.808 177.083 330.568C176.843 330.328 176.723 330 176.723 329.584C176.723 329.136 176.843 328.8 177.083 328.576C177.339 328.336 177.691 328.216 178.139 328.216H180.059L179.003 329.176V328.432C179.003 326.72 179.427 325.44 180.275 324.592C181.139 323.744 182.403 323.232 184.067 323.056L184.835 322.984C185.251 322.952 185.579 323.016 185.819 323.176C186.075 323.336 186.243 323.544 186.323 323.8C186.403 324.056 186.419 324.32 186.371 324.592C186.323 324.848 186.211 325.08 186.035 325.288C185.875 325.48 185.651 325.584 185.363 325.6L185.027 325.624C184.163 325.688 183.547 325.896 183.179 326.248C182.811 326.584 182.627 327.104 182.627 327.808V328.624L182.171 328.216H184.331C184.795 328.216 185.147 328.336 185.387 328.576C185.627 328.8 185.747 329.136 185.747 329.584C185.747 330 185.627 330.328 185.387 330.568C185.147 330.808 184.795 330.928 184.331 330.928H182.627V338.368C182.627 339.6 182.027 340.216 180.827 340.216ZM192.638 340.264C191.374 340.264 190.27 340.016 189.326 339.52C188.398 339.024 187.678 338.312 187.166 337.384C186.654 336.456 186.398 335.36 186.398 334.096C186.398 333.152 186.542 332.304 186.83 331.552C187.118 330.8 187.534 330.16 188.078 329.632C188.638 329.088 189.302 328.68 190.07 328.408C190.838 328.12 191.694 327.976 192.638 327.976C193.902 327.976 194.998 328.224 195.926 328.72C196.87 329.216 197.598 329.92 198.11 330.832C198.638 331.744 198.902 332.832 198.902 334.096C198.902 335.056 198.75 335.912 198.446 336.664C198.158 337.416 197.742 338.064 197.198 338.608C196.654 339.152 195.99 339.568 195.206 339.856C194.438 340.128 193.582 340.264 192.638 340.264ZM192.638 337.552C193.166 337.552 193.622 337.424 194.006 337.168C194.39 336.912 194.694 336.536 194.918 336.04C195.142 335.528 195.254 334.88 195.254 334.096C195.254 332.928 195.014 332.072 194.534 331.528C194.054 330.968 193.422 330.688 192.638 330.688C192.126 330.688 191.67 330.808 191.27 331.048C190.886 331.288 190.582 331.664 190.358 332.176C190.15 332.672 190.046 333.312 190.046 334.096C190.046 335.264 190.286 336.136 190.766 336.712C191.246 337.272 191.87 337.552 192.638 337.552ZM202.979 340.216C202.371 340.216 201.907 340.056 201.587 339.736C201.267 339.416 201.107 338.96 201.107 338.368V329.848C201.107 329.256 201.259 328.808 201.563 328.504C201.883 328.184 202.323 328.024 202.883 328.024C203.459 328.024 203.899 328.184 204.203 328.504C204.507 328.808 204.659 329.256 204.659 329.848V331.096H204.419C204.611 330.136 205.035 329.392 205.691 328.864C206.347 328.336 207.195 328.04 208.235 327.976C208.635 327.944 208.939 328.048 209.147 328.288C209.371 328.512 209.491 328.888 209.507 329.416C209.539 329.912 209.435 330.304 209.195 330.592C208.971 330.88 208.587 331.056 208.043 331.12L207.491 331.168C206.579 331.248 205.899 331.512 205.451 331.96C205.019 332.408 204.803 333.056 204.803 333.904V338.368C204.803 338.96 204.643 339.416 204.323 339.736C204.019 340.056 203.571 340.216 202.979 340.216ZM223.485 340.264C222.381 340.264 221.453 340.08 220.701 339.712C219.965 339.344 219.413 338.808 219.045 338.104C218.693 337.4 218.517 336.512 218.517 335.44V330.928H217.509C217.061 330.928 216.709 330.808 216.453 330.568C216.213 330.328 216.093 330 216.093 329.584C216.093 329.136 216.213 328.8 216.453 328.576C216.709 328.336 217.061 328.216 217.509 328.216H218.517V326.392C218.517 325.784 218.677 325.328 218.997 325.024C219.317 324.704 219.765 324.544 220.341 324.544C220.933 324.544 221.381 324.704 221.685 325.024C221.989 325.328 222.141 325.784 222.141 326.392V328.216H224.421C224.869 328.216 225.213 328.336 225.453 328.576C225.693 328.8 225.813 329.136 225.813 329.584C225.813 330 225.693 330.328 225.453 330.568C225.213 330.808 224.869 330.928 224.421 330.928H222.141V335.296C222.141 335.968 222.293 336.472 222.597 336.808C222.917 337.144 223.421 337.312 224.109 337.312C224.349 337.312 224.573 337.288 224.781 337.24C224.989 337.192 225.181 337.16 225.357 337.144C225.581 337.128 225.765 337.2 225.909 337.36C226.053 337.504 226.125 337.832 226.125 338.344C226.125 338.728 226.061 339.064 225.933 339.352C225.805 339.64 225.581 339.848 225.261 339.976C225.053 340.056 224.765 340.12 224.397 340.168C224.045 340.232 223.741 340.264 223.485 340.264ZM233.407 340.264C232.015 340.264 230.815 340.016 229.807 339.52C228.815 339.008 228.047 338.296 227.503 337.384C226.975 336.456 226.711 335.368 226.711 334.12C226.711 332.904 226.967 331.84 227.479 330.928C227.991 330 228.703 329.28 229.615 328.768C230.543 328.24 231.591 327.976 232.759 327.976C233.607 327.976 234.375 328.12 235.063 328.408C235.751 328.68 236.343 329.08 236.839 329.608C237.335 330.12 237.711 330.752 237.967 331.504C238.223 332.24 238.351 333.064 238.351 333.976C238.351 334.28 238.255 334.512 238.063 334.672C237.871 334.816 237.591 334.888 237.223 334.888H229.687V333.016H235.735L235.351 333.352C235.351 332.696 235.255 332.152 235.063 331.72C234.871 331.272 234.591 330.936 234.223 330.712C233.871 330.488 233.431 330.376 232.903 330.376C232.311 330.376 231.807 330.512 231.391 330.784C230.975 331.056 230.655 331.448 230.431 331.96C230.207 332.472 230.095 333.088 230.095 333.808V334C230.095 335.216 230.375 336.112 230.935 336.688C231.511 337.264 232.359 337.552 233.479 337.552C233.863 337.552 234.303 337.504 234.799 337.408C235.295 337.312 235.759 337.16 236.191 336.952C236.559 336.776 236.887 336.72 237.175 336.784C237.463 336.832 237.687 336.96 237.847 337.168C238.007 337.376 238.095 337.616 238.111 337.888C238.143 338.16 238.087 338.432 237.943 338.704C237.799 338.96 237.559 339.176 237.223 339.352C236.679 339.656 236.063 339.88 235.375 340.024C234.703 340.184 234.047 340.264 233.407 340.264ZM244.442 340.264C243.578 340.264 242.802 340.096 242.114 339.76C241.426 339.424 240.89 338.968 240.506 338.392C240.122 337.816 239.93 337.168 239.93 336.448C239.93 335.584 240.154 334.904 240.602 334.408C241.05 333.896 241.778 333.536 242.786 333.328C243.794 333.104 245.13 332.992 246.794 332.992H248.066V334.864H246.818C246.002 334.864 245.338 334.912 244.826 335.008C244.33 335.088 243.97 335.232 243.746 335.44C243.538 335.648 243.434 335.936 243.434 336.304C243.434 336.752 243.586 337.12 243.89 337.408C244.21 337.696 244.666 337.84 245.258 337.84C245.722 337.84 246.13 337.736 246.482 337.528C246.85 337.304 247.138 337.008 247.346 336.64C247.554 336.256 247.658 335.824 247.658 335.344V332.584C247.658 331.88 247.498 331.384 247.178 331.096C246.858 330.792 246.314 330.64 245.546 330.64C245.114 330.64 244.642 330.696 244.13 330.808C243.634 330.904 243.082 331.072 242.474 331.312C242.122 331.472 241.81 331.512 241.538 331.432C241.266 331.336 241.058 331.176 240.914 330.952C240.77 330.712 240.698 330.456 240.698 330.184C240.698 329.896 240.778 329.624 240.938 329.368C241.098 329.096 241.362 328.896 241.73 328.768C242.482 328.464 243.186 328.256 243.842 328.144C244.514 328.032 245.13 327.976 245.69 327.976C246.922 327.976 247.93 328.16 248.714 328.528C249.514 328.88 250.114 329.432 250.514 330.184C250.914 330.92 251.114 331.872 251.114 333.04V338.368C251.114 338.96 250.97 339.416 250.682 339.736C250.394 340.056 249.978 340.216 249.434 340.216C248.89 340.216 248.466 340.056 248.162 339.736C247.874 339.416 247.73 338.96 247.73 338.368V337.48L247.898 337.624C247.802 338.168 247.594 338.64 247.274 339.04C246.97 339.424 246.578 339.728 246.098 339.952C245.618 340.16 245.066 340.264 244.442 340.264ZM259.554 340.264C258.274 340.264 257.154 340.016 256.194 339.52C255.25 339.008 254.522 338.288 254.01 337.36C253.498 336.432 253.242 335.336 253.242 334.072C253.242 333.128 253.386 332.28 253.674 331.528C253.962 330.776 254.378 330.136 254.922 329.608C255.482 329.08 256.154 328.68 256.938 328.408C257.722 328.12 258.594 327.976 259.554 327.976C260.05 327.976 260.578 328.04 261.138 328.168C261.698 328.28 262.25 328.48 262.794 328.768C263.114 328.912 263.33 329.12 263.442 329.392C263.57 329.648 263.618 329.92 263.586 330.208C263.554 330.48 263.45 330.728 263.274 330.952C263.114 331.16 262.906 331.304 262.65 331.384C262.394 331.448 262.106 331.4 261.786 331.24C261.482 331.064 261.162 330.936 260.826 330.856C260.506 330.776 260.202 330.736 259.914 330.736C259.434 330.736 259.01 330.816 258.642 330.976C258.274 331.12 257.962 331.336 257.706 331.624C257.466 331.896 257.274 332.24 257.13 332.656C257.002 333.072 256.938 333.552 256.938 334.096C256.938 335.152 257.194 335.984 257.706 336.592C258.234 337.184 258.97 337.48 259.914 337.48C260.202 337.48 260.506 337.448 260.826 337.384C261.146 337.304 261.466 337.176 261.786 337C262.106 336.84 262.394 336.8 262.65 336.88C262.906 336.96 263.106 337.112 263.25 337.336C263.41 337.544 263.498 337.792 263.514 338.08C263.546 338.352 263.498 338.624 263.37 338.896C263.258 339.152 263.05 339.352 262.746 339.496C262.202 339.768 261.658 339.96 261.114 340.072C260.57 340.2 260.05 340.264 259.554 340.264ZM267.103 340.216C266.511 340.216 266.055 340.056 265.735 339.736C265.431 339.416 265.279 338.96 265.279 338.368V324.712C265.279 324.104 265.431 323.648 265.735 323.344C266.055 323.024 266.511 322.864 267.103 322.864C267.679 322.864 268.119 323.024 268.423 323.344C268.743 323.648 268.903 324.104 268.903 324.712V330.424H268.567C268.935 329.64 269.479 329.04 270.199 328.624C270.935 328.192 271.767 327.976 272.695 327.976C273.639 327.976 274.415 328.16 275.023 328.528C275.631 328.88 276.087 329.424 276.391 330.16C276.695 330.88 276.847 331.8 276.847 332.92V338.368C276.847 338.96 276.687 339.416 276.367 339.736C276.063 340.056 275.615 340.216 275.023 340.216C274.447 340.216 273.999 340.056 273.679 339.736C273.375 339.416 273.223 338.96 273.223 338.368V333.088C273.223 332.272 273.071 331.688 272.767 331.336C272.479 330.968 272.031 330.784 271.423 330.784C270.655 330.784 270.039 331.024 269.575 331.504C269.127 331.984 268.903 332.624 268.903 333.424V338.368C268.903 339.6 268.303 340.216 267.103 340.216ZM285.672 340.264C284.28 340.264 283.08 340.016 282.072 339.52C281.08 339.008 280.312 338.296 279.768 337.384C279.24 336.456 278.976 335.368 278.976 334.12C278.976 332.904 279.232 331.84 279.744 330.928C280.256 330 280.968 329.28 281.88 328.768C282.808 328.24 283.856 327.976 285.024 327.976C285.872 327.976 286.64 328.12 287.328 328.408C288.016 328.68 288.608 329.08 289.104 329.608C289.6 330.12 289.976 330.752 290.232 331.504C290.488 332.24 290.616 333.064 290.616 333.976C290.616 334.28 290.52 334.512 290.328 334.672C290.136 334.816 289.856 334.888 289.488 334.888H281.952V333.016H288L287.616 333.352C287.616 332.696 287.52 332.152 287.328 331.72C287.136 331.272 286.856 330.936 286.488 330.712C286.136 330.488 285.696 330.376 285.168 330.376C284.576 330.376 284.072 330.512 283.656 330.784C283.24 331.056 282.92 331.448 282.696 331.96C282.472 332.472 282.36 333.088 282.36 333.808V334C282.36 335.216 282.64 336.112 283.2 336.688C283.776 337.264 284.624 337.552 285.744 337.552C286.128 337.552 286.568 337.504 287.064 337.408C287.56 337.312 288.024 337.16 288.456 336.952C288.824 336.776 289.152 336.72 289.44 336.784C289.728 336.832 289.952 336.96 290.112 337.168C290.272 337.376 290.36 337.616 290.376 337.888C290.408 338.16 290.352 338.432 290.208 338.704C290.064 338.96 289.824 339.176 289.488 339.352C288.944 339.656 288.328 339.88 287.64 340.024C286.968 340.184 286.312 340.264 285.672 340.264ZM294.596 340.216C293.988 340.216 293.524 340.056 293.204 339.736C292.884 339.416 292.724 338.96 292.724 338.368V329.848C292.724 329.256 292.876 328.808 293.18 328.504C293.5 328.184 293.94 328.024 294.5 328.024C295.076 328.024 295.516 328.184 295.82 328.504C296.124 328.808 296.276 329.256 296.276 329.848V331.096H296.036C296.228 330.136 296.652 329.392 297.308 328.864C297.964 328.336 298.812 328.04 299.852 327.976C300.252 327.944 300.556 328.048 300.764 328.288C300.988 328.512 301.108 328.888 301.124 329.416C301.156 329.912 301.052 330.304 300.812 330.592C300.588 330.88 300.204 331.056 299.66 331.12L299.108 331.168C298.196 331.248 297.516 331.512 297.068 331.96C296.636 332.408 296.42 333.056 296.42 333.904V338.368C296.42 338.96 296.26 339.416 295.94 339.736C295.636 340.056 295.188 340.216 294.596 340.216ZM307.009 340.264C306.305 340.264 305.577 340.2 304.825 340.072C304.089 339.944 303.417 339.728 302.809 339.424C302.489 339.264 302.257 339.064 302.113 338.824C301.985 338.568 301.929 338.312 301.945 338.056C301.961 337.8 302.041 337.568 302.185 337.36C302.345 337.152 302.545 337.016 302.785 336.952C303.041 336.872 303.321 336.896 303.625 337.024C304.281 337.296 304.881 337.488 305.425 337.6C305.969 337.712 306.505 337.768 307.033 337.768C307.721 337.768 308.217 337.664 308.521 337.456C308.841 337.232 309.001 336.944 309.001 336.592C309.001 336.272 308.897 336.032 308.689 335.872C308.481 335.712 308.177 335.6 307.777 335.536L305.257 335.08C304.265 334.904 303.497 334.544 302.953 334C302.425 333.44 302.161 332.728 302.161 331.864C302.161 331.064 302.385 330.376 302.833 329.8C303.281 329.208 303.897 328.76 304.681 328.456C305.481 328.136 306.385 327.976 307.393 327.976C308.113 327.976 308.777 328.04 309.385 328.168C309.993 328.296 310.577 328.504 311.137 328.792C311.425 328.936 311.625 329.128 311.737 329.368C311.865 329.608 311.905 329.856 311.857 330.112C311.825 330.368 311.729 330.6 311.569 330.808C311.409 331.016 311.201 331.152 310.945 331.216C310.705 331.28 310.425 331.248 310.105 331.12C309.593 330.88 309.121 330.712 308.689 330.616C308.257 330.504 307.841 330.448 307.441 330.448C306.721 330.448 306.201 330.568 305.881 330.808C305.561 331.032 305.401 331.32 305.401 331.672C305.401 331.944 305.489 332.176 305.665 332.368C305.857 332.544 306.145 332.664 306.529 332.728L309.049 333.184C310.089 333.36 310.881 333.712 311.425 334.24C311.969 334.752 312.241 335.456 312.241 336.352C312.241 337.568 311.761 338.528 310.801 339.232C309.857 339.92 308.593 340.264 307.009 340.264Z" fill="#00B2C1"/>
</svg>
