<svg width="28" height="28" viewBox="0 0 28 28" fill="none" xmlns="http://www.w3.org/2000/svg">
<g clip-path="url(#clip0_675_633)">
<path d="M24.8889 0H3.11111C1.39289 0 0 1.39289 0 3.11111V24.8889C0 26.6071 1.39289 28 3.11111 28H24.8889C26.6071 28 28 26.6071 28 24.8889V3.11111C28 1.39289 26.6071 0 24.8889 0ZM8.55556 22.5556C8.55556 22.9851 8.20733 23.3333 7.77778 23.3333H5.44444C5.01489 23.3333 4.66667 22.9851 4.66667 22.5556V11.6667C4.66667 11.2371 5.01489 10.8889 5.44444 10.8889H7.77778C8.20733 10.8889 8.55556 11.2371 8.55556 11.6667V22.5556ZM6.61111 9.33333C5.32245 9.33333 4.27778 8.28866 4.27778 7C4.27778 5.71134 5.32245 4.66667 6.61111 4.66667C7.89978 4.66667 8.94444 5.71134 8.94444 7C8.94444 8.28866 7.89978 9.33333 6.61111 9.33333ZM23.3333 22.5556C23.3333 22.9851 22.9851 23.3333 22.5556 23.3333H20.2222C19.7927 23.3333 19.4444 22.9851 19.4444 22.5556V16.7222C19.4444 15.4336 18.3998 14.3889 17.1111 14.3889C15.8224 14.3889 14.7778 15.4336 14.7778 16.7222V22.5556C14.7778 22.9851 14.4296 23.3333 14 23.3333H11.6667C11.2371 23.3333 10.8889 22.9851 10.8889 22.5556V11.6667C10.8889 11.2371 11.2371 10.8889 11.6667 10.8889H14C14.4296 10.8889 14.7778 11.2371 14.7778 11.6667V12.6C15.724 11.1602 17.3865 10.3588 19.1022 10.5156C21.5563 10.8181 23.3838 12.9279 23.3333 15.4V22.5556Z" fill="#505050"/>
</g>
<defs>
<clipPath id="clip0_675_633">
<rect width="28" height="28" fill="white"/>
</clipPath>
</defs>
</svg>
