<svg width="119" height="137" viewBox="0 0 119 137" fill="none" xmlns="http://www.w3.org/2000/svg">
<path fill-rule="evenodd" clip-rule="evenodd" d="M0 131C0 121.333 5 99.6687 25 91.6687C17 84.8354 6.3 67.5687 27.5 53.1687C21.5 40.002 17 9.66878 51.5 0.668743C72 -2.83122 107.3 6.36868 92.5 53.1687C101.333 58.502 114.2 73.6686 95 91.6687C98.5 93.3354 109.5 102.338 111 104.169C112.5 106 111 107.669 111 107.669C111 107.669 109.5 108.831 107.5 107.5C105.5 106.169 102.432 103.299 101 102C98.6277 99.8486 95 97 95 97L89.5 95.1688L81.5 105.169L85.5 107.669C86.1667 108.169 87.1 109.669 85.5 111.669C83.9 113.669 68.5 128.835 61 136.169H59.5L34.5 111.669C33.8333 111.169 32.5 109.5 33.5 107.669C33.8836 106.966 37.8333 105.169 38.5 105.169L31.5 95.1688C23 97.6687 6 108.6 6 131C6 131 5 132.5 3 132.5C1 132.5 0 131 0 131ZM51.5 6.6687C23.5 15.0687 27.1667 38.8354 32.5 49.6687C35 49.6687 36 46.1687 37 39.1687C37.8 33.5687 43.3333 32.502 46 32.6687H62.5C65.3 32.6687 66.6667 28.6687 67 26.6687L68 24.6687C69.1667 24.502 71.9 24.2687 73.5 24.6687C75.5 25.1687 78 26.1687 81.5 31.6687C85 37.1687 82.5 39.6687 83 44.1687C83.4 47.7687 85.8333 49.3354 87 49.6687C100.6 21.2687 78.3333 9.1687 65.5 6.6687H51.5ZM43 40.6687C42.6 47.8687 37.8333 53.3354 35.5 55.1687C37.9 77.9687 55.5 81.3354 64 80.1687C80 76.5687 84.3333 62.002 84.5 55.1687C84 55.1687 82.7 54.7687 81.5 53.1687C80 51.1687 77 46.6687 77 44.1687C77 41.6687 77.5 40.6687 77 36.1687C76.6 32.5687 73.5 31.002 72 30.6687C72 33.8687 67.6667 37.002 65.5 38.1687H53C43.5 38.1687 43 39.1687 43 40.6687ZM47 83.1687C33.8 77.9687 29.8333 64.6687 29.5 58.6687C29.286 56.6687 17 68.1687 21.5 78.1687C25.1 86.1686 31.3333 88.502 34 88.6687L47 85.6687V83.1687ZM90.5 58.6687C88.9 73.0686 77.8333 81.002 72.5 83.1687V85.6687C75.6667 86.6687 83.1 88.6687 87.5 88.6687C93 88.6687 99 79.1687 99 78.1687C102.2 66.5686 94.6667 60.3353 90.5 58.6687ZM53 85.6687C57 86.8686 64 86.1687 67 85.6687V88.6687L60 105.669L53 88.1687V85.6687ZM63 114.169L71.5 91.1687C71.9 91.5687 79 93.3354 82.5 94.1687L74 105.669C74.4 107.669 76.8333 109.835 78 110.669L63 125.669V114.169ZM57 114.169L48 91.1687L37.5 94.1687C39.8333 97.3354 44.8 104.069 46 105.669C47.2 107.269 43.8333 109.669 42 110.669L57 125.669V114.169Z" fill="#959595"/>
<path d="M88 125.169H98C99.3333 126.169 101.3 128.769 98.5 131.169H88C86.8333 130.169 85.2 127.569 88 125.169Z" fill="#959595"/>
<path d="M115 114.5L115.025 114.505C115.869 114.674 117.604 115.02 118 117C118.4 119 116.167 119.833 115 120C114 119.833 112 119.169 112 117.169C112 115.169 114 114.667 115 114.5Z" fill="#959595"/>
<path d="M56.5 64.1687C57.6667 65.5021 60.7 67.3687 63.5 64.1687C65.1667 63.8354 68.3 64.1687 67.5 68.1687C66.5 73.1687 53 72.1687 52.5 68.1687C52 64.1687 55.9954 63.6688 56.5 64.1687Z" fill="#959595"/>
</svg>
