<svg width="24" height="15" viewBox="0 0 24 15" fill="none" xmlns="http://www.w3.org/2000/svg">
<path d="M0.355107 12.3865C0.127836 12.1571 0 11.8449 0 11.5192C0 11.1934 0.127836 10.8812 0.355107 10.6519L10.2713 0.537479C10.6087 0.193755 11.0664 0.000427656 11.5438 0H12.4562C12.9326 0.0056289 13.3885 0.198174 13.7287 0.537479L23.6449 10.6519C23.8722 10.8812 24 11.1934 24 11.5192C24 11.8449 23.8722 12.1571 23.6449 12.3865L21.9402 14.121C21.7189 14.3509 21.416 14.4804 21.0998 14.4804C20.7836 14.4804 20.4808 14.3509 20.2595 14.121L12 5.69239L3.74053 14.121C3.51512 14.3523 3.20827 14.4824 2.88817 14.4824C2.56807 14.4824 2.26123 14.3523 2.03581 14.121L0.355107 12.3865Z" fill="#333333"/>
</svg>